# xmcd
#
# Track frame offsets:
#	150
#	18060
#	34590
#	54537
#	73985
#	90157
#	106430
#	125397
#	141885
#	163960
#	178380
#	199830
#
# Disc length: 2933 seconds
#
# Revision: 1
# Processed by: cddbd v1.5.1PL0 Copyright (c) Steve Scherf et al.
# Submitted via: CDex 1.50Beta5
#
DISCID=a70b730c
DTITLE=佐藤隆 - Comme ci,Comme ca
DYEAR=1900
DGENRE=Pop
TTITLE0=北京で朝食を
TTITLE1=スパイ
TTITLE2=コスモポリタン
TTITLE3=キャバレー
TTITLE4=君にダブルパーキング
TTITLE5=マイ・クラシック
TTITLE6=カルメン
TTITLE7=裸足のゼルダ
TTITLE8=桃色吐息
TTITLE9=ローゼのワイン
TTITLE10=スチューデント・ライン
TTITLE11=アジャンタ
EXTD=
EXTT0=
EXTT1=
EXTT2=
EXTT3=
EXTT4=
EXTT5=
EXTT6=
EXTT7=
EXTT8=
EXTT9=
EXTT10=
EXTT11=
PLAYORDER=
